<?xml version="1.0" encoding="UTF-8" standalone="no"?>
<!--part of the matt icon theme by sixsixfive released under CC0 (https://creativecommons.org/publicdomain/zero/1.0/) on openclipart-->

<svg
   xmlns:dc="http://purl.org/dc/elements/1.1/"
   xmlns:cc="http://creativecommons.org/ns#"
   xmlns:rdf="http://www.w3.org/1999/02/22-rdf-syntax-ns#"
   xmlns:svg="http://www.w3.org/2000/svg"
   xmlns="http://www.w3.org/2000/svg"
   xmlns:xlink="http://www.w3.org/1999/xlink"
   xmlns:sodipodi="http://sodipodi.sourceforge.net/DTD/sodipodi-0.dtd"
   xmlns:inkscape="http://www.inkscape.org/namespaces/inkscape"
   viewBox="0 0 109.18679 120.82958"
   id="svg5117"
   version="1.1"
   inkscape:version="0.91 r13725"
   sodipodi:docname="refresh.svg"
   width="109.18679"
   height="120.82958">
  <metadata
     id="metadata5143">
    <rdf:RDF>
      <cc:Work
         rdf:about="">
        <dc:format>image/svg+xml</dc:format>
        <dc:type
           rdf:resource="http://purl.org/dc/dcmitype/StillImage" />
        <dc:title></dc:title>
      </cc:Work>
    </rdf:RDF>
  </metadata>
  <sodipodi:namedview
     pagecolor="#ffffff"
     bordercolor="#666666"
     borderopacity="1"
     objecttolerance="10"
     gridtolerance="10"
     guidetolerance="10"
     inkscape:pageopacity="0"
     inkscape:pageshadow="2"
     inkscape:window-width="1920"
     inkscape:window-height="1054"
     id="namedview5141"
     showgrid="false"
     fit-margin-top="0"
     fit-margin-left="0"
     fit-margin-right="0"
     fit-margin-bottom="0"
     inkscape:zoom="3.6875"
     inkscape:cx="56.684805"
     inkscape:cy="26.839001"
     inkscape:window-x="1366"
     inkscape:window-y="0"
     inkscape:window-maximized="1"
     inkscape:current-layer="svg5117" />
  <defs
     id="0">
    <linearGradient
       id="7">
      <stop
         id="F"
         stop-color="#a4c0e4" />
      <stop
         id="G"
         offset="1"
         stop-color="#6193cf" />
    </linearGradient>
    <linearGradient
       id="8">
      <stop
         id="H"
         stop-color="#fff" />
      <stop
         id="I"
         offset="1"
         stop-color="#fff"
         stop-opacity="0" />
    </linearGradient>
    <linearGradient
       id="9">
      <stop
         id="J" />
      <stop
         id="K"
         offset="1"
         stop-opacity="0" />
    </linearGradient>
    <radialGradient
       cx="68.010002"
       cy="124.75"
       r="39.584999"
       id="A"
       xlink:href="#9"
       gradientUnits="userSpaceOnUse"
       gradientTransform="matrix(1,0,0,0.06153846,0,117.07494)" />
    <filter
       x="-0.035"
       y="-0.57300001"
       width="1.0700001"
       height="2.145"
       id="B"
       style="color-interpolation-filters:sRGB">
      <feGaussianBlur
         stdDeviation="1.16249"
         id="L" />
    </filter>
    <linearGradient
       y1="3.5650001"
       x2="0"
       y2="9.54"
       id="C"
       xlink:href="#8"
       gradientUnits="userSpaceOnUse"
       gradientTransform="matrix(0.69910451,-0.55041131,0.55041131,0.69910451,-26.398977,55.394857)" />
    <linearGradient
       y1="33.953999"
       x2="0"
       y2="46.439999"
       id="D"
       xlink:href="#8"
       gradientUnits="userSpaceOnUse"
       gradientTransform="matrix(0,1.0513598,-1.117578,0,62.518487,5.5928414)" />
    <linearGradient
       y1="1.581"
       x2="0"
       y2="122.44"
       id="E"
       xlink:href="#7"
       gradientUnits="userSpaceOnUse"
       gradientTransform="matrix(0.69910451,-0.55041131,0.55041131,0.69910451,-26.399029,55.395025)" />
  </defs>
  <path
     d="m 3.5113207,28.237673 c -0.2672913,0.218078 -0.5318134,0.454593 -0.8452606,0.745028 -0.1206131,0.11176 -0.1728995,0.193016 -0.2559787,0.28108 -0.031938,0.02896 -0.1077827,0.105095 -0.2016806,0.198494 -0.026102,0.02564 -0.074826,0.09149 -0.1034668,0.12117 -0.17837,0.185233 -0.3998535,0.397409 -0.625838,0.771139 -0.0023,0.0044 -0.3234628,0.569018 -0.51663151,1.162435 -0.29124764,0.894726 -0.27541094,1.680441 -0.20834334,2.311772 0.077079,0.725483 0.26660015,1.53986 0.78689215,2.363446 0.1847034,0.292377 0.3555193,0.518585 0.497387,0.682273 0.063106,0.07288 0.1192017,0.114919 0.1792024,0.177097 0.00742,0.0076 0.011738,0.01685 0.0193,0.02451 0.034397,0.03528 0.052124,0.05327 0.1598713,0.152543 0.02695,0.02485 0.1596245,0.152342 0.1598713,0.152542 1.257e-4,1.05e-4 0.2862436,0.212052 0.2863026,0.212095 6.2e-6,7e-6 0.042319,0.0047 0.043854,0.0052 0.030404,0.02163 0.072609,0.05904 0.101878,0.07888 l -0.024553,0.01933 c -0.055228,-0.04166 0.1654901,0.103472 0.1650936,0.108658 -0.00122,0.01636 0.037214,0.06756 0.5146119,0.350529 0.5214426,0.309068 0.8124326,0.421531 1.0062308,0.520298 0.6727031,0.342837 1.5187566,0.780741 2.5427353,1.259466 2.0340909,0.95097 4.6438427,2.129381 7.3047997,3.317106 2.657295,1.18609 5.374719,2.360611 7.422343,3.264334 1.023769,0.451843 1.883099,0.829213 2.495186,1.098037 0.306045,0.134413 0.528649,0.254443 0.695372,0.327533 0.166722,0.07309 0.654303,0.297298 0.252863,0.119103 -0.241979,-0.107411 5.538899,2.436684 10.846434,4.784453 2.634115,1.165191 5.318753,2.377593 7.422345,3.264335 1.084618,0.457204 1.965794,0.780987 2.5934,1.020712 0.34986,0.133633 0.673282,0.272013 1.065779,0.393864 -0.758147,-0.235359 0.17481,0.110621 0.774255,0.225655 -0.02541,-0.0049 0.273318,0.02697 0.394961,0.047 0.01684,0.0025 0.07005,0.0076 0.08777,0.01044 0.161478,0.02619 0.284556,0.04249 0.438846,0.05222 0.03657,0.0016 0.03119,-0.01489 0.06844,-0.01411 a 3.8013223,3.8013223 0 0 0 0.380852,-0.02144 c 0.22616,-0.0031 0.416072,0.0063 0.717819,-0.0481 0.764068,-0.137814 1.575872,-0.446572 2.272013,-0.953544 0.676764,-0.492846 1.369195,-1.195847 1.823185,-2.230869 0.198364,-0.452241 0.24743,-0.738626 0.300873,-1.03234 0.009,-0.04966 0.05693,-0.122138 0.06477,-0.170316 0.01808,-0.111043 0.04087,-0.283844 0.05222,-0.438845 0.0057,-0.0775 0.02435,-0.0824 0.02611,-0.219423 0.0031,-0.03586 0.02652,-0.02191 0.02978,-0.06322 0.04358,-0.553291 0.0045,-0.860558 0.0026,-0.956573 -0.0099,-0.488778 -0.0313,-0.918193 -0.07164,-1.45497 -0.08879,-1.181371 -0.252399,-2.690902 -0.420236,-4.322584 -0.164564,-1.599866 -0.387358,-3.414764 -0.584319,-5.187724 7.949905,-0.333975 15.851709,2.705458 21.152145,9.437802 8.872349,11.269211 6.950368,27.420169 -4.318832,36.292513 -11.269207,8.872346 -27.420166,6.950372 -36.292513,-4.318833 -3.644416,-4.62895 -5.345197,-10.058771 -5.417822,-15.620991 -0.01708,-1.274117 -0.440381,-2.72307 -1.692339,-3.91764 -1.143717,-1.091312 -2.484253,-1.552825 -3.936596,-1.514349 l -0.01933,-0.02455 c -0.01438,3.75e-4 -0.01021,0.01898 -0.02455,0.01933 -4.458751,0.120259 -6.76681,0.211721 -7.840127,0.246429 -0.557802,0.01804 -0.820483,0.01049 -1.093449,0.02565 0.316044,-0.01755 -0.172051,0.03674 -0.249199,0.0371 -0.01745,-6.03e-4 -0.05014,0.01464 -0.06844,0.01411 -0.213638,-0.0063 -0.47941,-0.01742 -0.800366,-0.0062 -1.078287,0.03758 -3.2973348,0.08766 -7.7471355,0.212989 a 3.8013223,3.8013223 0 0 0 -0.024553,0.01933 C 2.8175967,61.731832 0.91378065,63.53034 0.29583375,65.729508 A 3.8013223,3.8013223 0 0 0 7.3115421e-4,67.274353 C 0.23407265,78.696097 3.8627244,90.264992 11.52771,100.00067 c 18.644982,23.68191 53.116029,27.78399 76.79794,9.139 C 112.0074,90.494819 116.16351,55.991034 97.513764,32.303069 85.854862,17.494524 68.017013,10.723736 50.563944,12.073539 50.45756,11.015343 50.341333,9.826193 50.246682,8.9426177 50.123954,7.7969333 50.040454,6.7884432 49.918977,5.8994659 49.854837,5.4301069 49.745196,5.0639217 49.693235,4.8044586 c -2e-6,-3.37e-5 0.0061,-0.035588 0.0052,-0.043884 -0.0041,-0.040724 -0.03619,-0.1612816 -0.04233,-0.2053139 -0.01476,-0.106007 -0.01393,-0.1344454 -0.02299,-0.1807604 -0.01812,-0.092635 -0.03191,-0.162796 -0.04233,-0.2053139 -0.01459,-0.059586 -0.04075,-0.074599 -0.05277,-0.1175447 -0.02212,-0.080991 0.01735,-0.030107 -0.0089,-0.1123225 -0.01158,-0.036855 -0.03964,-0.07832 -0.05277,-0.1175448 -0.02876,-0.085925 -0.08155,-0.2071545 -0.119651,-0.3035275 -0.05112,-0.1466171 -0.106082,-0.2770785 -0.172424,-0.4210754 -0.01221,-0.02424 -0.0011,-0.043523 -0.01411,-0.068438 A 3.8013223,3.8013223 0 0 0 48.96274,2.7147614 3.8013223,3.8013223 0 0 0 48.92408,2.6656544 C 48.811501,2.4673645 48.747581,2.2824746 48.553158,2.0429322 48.01712,1.3824853 47.297377,0.8425147 46.491046,0.4846127 45.657608,0.114643 44.811933,-0.0536998 43.85431,0.0150684 c -0.407745,0.029285 -0.694675,0.084959 -0.952909,0.1536392 -0.129123,0.034332 -0.236216,0.062265 -0.41585,0.1285375 -0.03765,0.013857 -0.08086,0.046733 -0.142068,0.072141 -0.01125,0.00377 -0.01302,0.015342 -0.02455,0.019331 -0.13522,0.042823 -0.15957,0.025848 -0.322859,0.095098 -0.290068,0.1229909 -0.491446,0.2579922 -0.715713,0.4043956 -0.05832,0.032803 -0.290622,0.1814636 -0.431517,0.2601912 -0.17676,0.098692 -0.290423,0.1450343 -0.54903,0.3130015 -0.637815,0.4140843 -1.403472,0.9480505 -2.325794,1.5924808 -1.830985,1.2793403 -4.195701,2.9334434 -6.561532,4.6489047 -2.366399,1.7158829 -4.742688,3.4680741 -6.533314,4.7857801 -0.884192,0.650696 -1.635812,1.195744 -2.19411,1.608187 -0.268428,0.198355 -0.488512,0.390974 -0.638389,0.50261 -0.07525,0.05543 -0.127377,0.06223 -0.16662,0.09147 -0.0098,0.0073 -0.01702,0.01373 -0.02455,0.01933 -8.8e-5,6.9e-5 -0.185658,0.14687 -0.196427,0.154649 -0.153833,0.110926 -1.204804,0.85831 -2.895752,2.080981 -1.809601,1.308387 -4.199923,3.038548 -6.552645,4.761226 -2.3320411,1.707555 -4.6805506,3.417193 -6.4894293,4.791003 -0.9224397,0.700536 -1.6632958,1.294637 -2.2098072,1.739802 z m 8.4581773,33.829702 c 0.01242,-0.01232 0.09829,-0.07737 0.09821,-0.07732 -4.83e-4,3.04e-4 0.465619,-0.259574 0.685938,-0.34118 0.105234,-0.03898 0.202971,-0.04926 0.298305,-0.07577 0.07373,-0.0205 0.162633,-0.0471 0.229867,-0.06166 0.01324,-0.0027 0.04113,-0.02436 0.09299,-0.03344 0.0043,-6.22e-4 0.01441,0.02526 0.01933,0.02455 -0.08262,0.01459 -0.229525,0.114347 -0.328081,0.138983 -0.325357,0.08133 -0.66329,0.13617 -1.096565,0.425832 z m -0.383968,0.421621 c -0.445259,0.462175 -0.852925,0.992142 -0.976366,1.285751 0.115631,-0.243981 0.298163,-0.632787 0.297757,-0.632157 -3.04e-4,4.72e-4 0.348955,-0.327566 0.678609,-0.653594 z"
     id="2"
     inkscape:connector-curvature="0"
     style="fill:#0057ae" />
  <path
     d="m 6.2000577,31.53431 c -0.261331,0.213385 -0.4461982,0.362751 -0.6163668,0.520654 -0.080717,0.075 -0.1971829,0.156516 -0.2886615,0.262647 -0.040448,0.04686 -0.094549,0.08717 -0.162229,0.198489 -0.029405,0.04873 -0.065411,0.134099 -0.1106196,0.26404 -0.045227,0.129918 -0.076568,0.298246 -0.047855,0.568509 0.028715,0.2703 0.083645,0.44077 0.1520279,0.552693 0.06838,0.111925 0.1334988,0.177646 0.1720069,0.218474 0.095212,0.100969 0.1817094,0.115877 0.2203475,0.145021 0.1023733,0.07723 0.1837638,0.169941 0.2891477,0.232407 0.2020402,0.119763 0.466058,0.235441 0.765619,0.388109 0.6021625,0.306888 1.4407078,0.695831 2.4358549,1.161077 1.9898163,0.930272 4.6022883,2.09568 7.2526953,3.278696 5.300975,2.366104 10.782519,4.778764 10.871136,4.818102 0.0361,0.01602 1.392832,0.650526 3.418558,1.555219 2.025725,0.904694 4.724081,2.081193 7.374485,3.253588 2.650282,1.172341 5.319009,2.357936 7.340083,3.209895 1.010571,0.425996 1.862704,0.768595 2.493488,1.009531 0.314717,0.120212 0.574289,0.223751 0.79676,0.292818 0.11662,0.03621 0.203526,0.03483 0.32958,0.05902 0.0546,0.01048 0.116569,0.04691 0.251484,0.04973 0.05819,0.0012 0.144622,0.02189 0.277979,-0.0065 0.133359,-0.0284 0.325307,-0.09213 0.544788,-0.251972 0.262611,-0.191242 0.382602,-0.356552 0.43368,-0.482996 0.05107,-0.126451 0.02081,-0.224536 0.03253,-0.273332 0.03084,-0.128425 0.04791,-0.208536 0.05437,-0.290532 0.01263,-0.160266 -0.0018,-0.289774 -0.0051,-0.456014 -0.0068,-0.337379 -0.02403,-0.76622 -0.06374,-1.294597 -0.07938,-1.056188 -0.228772,-2.504292 -0.397636,-4.145953 -0.30104,-2.92667 -0.706013,-6.454483 -1.054253,-9.609734 10.648425,-2.033091 22.001927,1.650377 29.172453,10.758015 10.288902,13.068442 8.057904,31.982238 -5.010488,42.271101 C 60.053748,100.07935 41.12271,97.826552 30.833843,84.758155 26.582507,79.358322 24.610516,72.948978 24.526885,66.54388 c -0.0045,-0.334659 -0.130107,-0.645916 -0.370989,-0.875756 -0.241424,-0.230359 -0.574208,-0.357034 -0.909257,-0.345803 -4.468535,0.120336 -6.689706,0.202606 -7.809884,0.238827 -0.560132,0.01811 -0.869196,0.02624 -1.033819,0.03538 -0.07836,0.0043 -0.07066,-0.0045 -0.199883,0.01581 -0.0186,0.0029 -0.04579,0.0097 -0.06089,0.01256 -0.105969,0.0062 -0.374633,-0.0085 -0.91203,0.01027 -1.101552,0.03839 -3.3392079,0.135246 -7.7926834,0.260675 C 4.760158,65.918633 4.2299273,66.441215 4.2423844,67.119841 4.4584817,77.701449 7.8033353,88.363926 14.863679,97.331617 32.088288,119.20944 63.834957,123.00714 85.712805,105.78251 107.59066,88.557875 111.39392,56.773397 94.16834,34.894339 82.494009,20.066195 64.197208,13.898094 46.797717,16.664297 46.523989,14.050546 46.236349,11.398209 46.02062,9.3843628 45.894435,8.2064315 45.794988,7.1791677 45.696021,6.4549108 45.646431,6.0919999 45.590198,5.8252033 45.542119,5.5851924 c -0.02343,-0.1169508 -0.01004,-0.2465 -0.05348,-0.3825699 -0.01913,-0.0599 -0.0436,-0.1493884 -0.106457,-0.2700697 C 45.356422,4.8830868 45.317252,4.8076511 45.232026,4.6968754 45.146826,4.5860749 44.997777,4.4558265 44.73974,4.3412941 44.490507,4.2306607 44.31822,4.2060283 44.180515,4.2153494 c -0.13773,0.00929 -0.22991,0.033093 -0.282626,0.045566 -0.127754,0.0302 -0.211994,0.081885 -0.270062,0.1064755 -0.126303,0.053494 -0.198827,0.107793 -0.296558,0.162719 -0.203512,0.1144085 -0.42441,0.2669416 -0.707001,0.4504824 -0.566937,0.3680812 -1.339385,0.8865338 -2.239565,1.515504 -1.800044,1.2577172 -4.122589,2.9318446 -6.47185,4.6352907 -2.349302,1.703478 -4.70863,3.44882 -6.507641,4.769628 -1.799018,1.3208 -3.042266,2.220432 -3.079039,2.247219 -0.08804,0.06423 -4.90329,3.55197 -9.582035,6.977796 -2.339226,1.712804 -4.677375,3.412669 -6.4248976,4.739878 -0.8739528,0.663762 -1.5956976,1.242052 -2.11916,1.668434 z"
     id="3"
     inkscape:connector-curvature="0"
     style="fill:url(#E)" />
  <path
     d="m 7.0090112,33.056011 a 0.11852399,0.11852399 0 0 0 -0.00465,0.03905 0.11852399,0.11852399 0 0 0 -0.00465,0.03905 0.11852399,0.11852399 0 0 0 0.017197,0.02184 0.11852399,0.11852399 0 0 0 0.017197,0.02184 0.11852399,0.11852399 0 0 0 0.017197,0.02184 0.11852399,0.11852399 0 0 0 0.017197,0.02184 c 0.1125888,0.0556 0.1379924,0.05946 0.2812416,0.132473 0.5886638,0.300003 1.383087,0.696107 2.3577568,1.151781 1.9658264,0.919056 4.5627244,2.090802 7.2136474,3.274048 5.295454,2.36364 10.583641,4.69048 10.871137,4.818102 0.185548,0.08236 1.415886,0.633864 3.440404,1.538019 2.024507,0.904151 4.705012,2.099621 7.352638,3.270789 2.652276,1.173222 5.328736,2.34744 7.322884,3.188047 0.994639,0.41928 1.807288,0.767965 2.415392,1.000239 0.139087,0.05312 0.192796,0.05827 0.285885,0.09342 a 0.11852399,0.11852399 0 0 0 0.03905,0.0046 0.11852399,0.11852399 0 0 0 0.03905,0.0047 0.11852399,0.11852399 0 0 0 0.02185,-0.0172 0.11852399,0.11852399 0 0 0 0.02185,-0.0172 0.11852399,0.11852399 0 0 0 0.02185,-0.0172 0.11852399,0.11852399 0 0 0 0.02185,-0.0172 0.11852399,0.11852399 0 0 0 0.0046,-0.03905 c -0.0087,-0.268931 -0.01603,-0.574723 -0.04467,-0.955723 -0.0762,-1.013883 -0.233428,-2.465319 -0.402283,-4.106906 -0.300913,-2.925436 -0.700123,-6.48179 -1.049607,-9.648782 -0.08358,-0.851935 0.496564,-1.605148 1.338214,-1.761367 11.247308,-2.161802 23.264929,1.726235 30.844102,11.352915 10.853934,13.786118 8.493618,33.797925 -5.293935,44.652991 C 60.383843,101.97804 40.35629,99.594749 29.501215,85.807184 25.13596,80.262658 23.088796,73.699638 22.889296,67.160615 a 0.11852399,0.11852399 0 0 0 0.0046,-0.03905 0.11852399,0.11852399 0 0 0 -0.0172,-0.02185 0.11852399,0.11852399 0 0 0 -0.0172,-0.02185 0.11852399,0.11852399 0 0 0 -0.0172,-0.02185 0.11852399,0.11852399 0 0 0 -0.0172,-0.02185 0.11852399,0.11852399 0 0 0 -0.03905,-0.0046 c -3.893314,0.107479 -6.236725,0.187011 -7.292969,0.221165 -0.562547,0.01819 -0.882253,0.03378 -0.994771,0.04002 0.0063,0.0048 0.01722,0.02186 0.0172,0.02185 -3.7e-5,-3.7e-5 0.03441,0.04373 0.0344,0.04369 -1.2e-5,-3.9e-5 -0.0093,0.07814 -0.0093,0.07809 1.1e-5,-4e-5 -0.02188,0.01724 -0.02185,0.0172 3.2e-5,-4.3e-5 -0.02191,0.01725 -0.02185,0.0172 1.12e-4,-8.7e-5 -0.02205,0.01729 -0.02185,0.0172 1.97e-4,-9.3e-5 -0.01944,0.01635 -0.02185,0.0172 0,0 -0.0172,-0.02185 -0.0172,-0.02185 0,0 -0.03905,-0.0046 -0.03905,-0.0046 0,0 0.07019,-0.09065 0.07019,-0.09065 -3.2e-5,1.5e-5 0.0023,-0.07139 -0.0079,-0.09994 1.76e-4,6.7e-5 -0.01749,-0.02191 -0.0172,-0.02185 -0.06824,0.01464 -0.152203,0.02714 -0.221731,0.03302 l 0.0172,0.02185 c -0.423315,0.02493 -0.464716,-0.01133 -0.951052,0.0056 -0.995761,0.0347 -3.3820845,0.123624 -7.1758322,0.23508 a 0.11852399,0.11852399 0 0 0 -0.039054,-0.0046 0.11852399,0.11852399 0 0 0 -0.02185,0.0172 0.11852399,0.11852399 0 0 0 -0.021851,0.0172 0.11852399,0.11852399 0 0 0 -0.021851,0.0172 0.11852399,0.11852399 0 0 0 -0.021843,0.0172 0.11852399,0.11852399 0 0 0 -0.00465,0.03905 C 6.3010954,77.709871 9.5104551,87.790121 16.196376,96.282239 32.854722,117.44083 63.505891,121.10736 84.663616,104.44969 105.8214,87.791971 109.49366,57.101496 92.835705,35.943401 81.543434,21.600532 63.839509,15.621204 46.997716,18.311549 46.553497,18.38252 46.085021,18.27416 45.72774,18.002018 45.370459,17.729876 45.161271,17.309984 45.1113,16.859452 44.836241,14.232897 44.555399,11.561976 44.33885,9.540472 44.211628,8.3528709 44.1174,7.3348993 44.026804,6.6719147 44.008159,6.5354445 43.98823,6.436512 43.968683,6.3283955 a 0.11852399,0.11852399 0 0 0 -0.0172,-0.021843 0.11852399,0.11852399 0 0 0 -0.0172,-0.021843 0.11852399,0.11852399 0 0 0 -0.0172,-0.021843 0.11852399,0.11852399 0 0 0 -0.0172,-0.021843 0.11852399,0.11852399 0 0 0 -0.03905,-0.00464 0.11852399,0.11852399 0 0 0 -0.03905,-0.00464 0.11852399,0.11852399 0 0 0 -0.02185,0.017203 0.11852399,0.11852399 0 0 0 -0.02185,0.017203 c -0.08682,0.056903 -0.117316,0.073273 -0.23564,0.1501393 -0.546606,0.3548744 -1.310138,0.8622347 -2.19587,1.4811033 -1.782275,1.2453057 -4.103248,2.9164639 -6.450004,4.6180899 -2.345445,1.700684 -4.688913,3.433183 -6.485787,4.752436 -1.796879,1.319243 -2.849263,2.079868 -3.079045,2.247211 -0.216152,0.157451 -4.9081,3.55549 -9.582036,6.977796 -2.342292,1.715052 -4.680262,3.414255 -6.40305,4.722678 -0.8543061,0.648803 -1.5617263,1.215561 -2.0754666,1.634033 -0.1023877,0.08316 -0.1398586,0.106294 -0.2184704,0.172004 a 0.11852399,0.11852399 0 0 0 -0.021851,0.0172 0.11852399,0.11852399 0 0 0 -0.021851,0.0172 z"
     id="4"
     inkscape:connector-curvature="0"
     style="opacity:0.60100002;fill:none;stroke:url(#C);stroke-width:3.47991037;stroke-linecap:round;stroke-linejoin:round" />
  <path
     d="m 56.681076,101.32948 c 0.04422,0.13668 0.115405,0.34558 0.203632,0.61824 -0.07976,-0.1336 -0.104822,-0.14575 -0.184561,-0.27936 l -0.01907,-0.33888 z"
     id="6"
     inkscape:connector-curvature="0"
     style="opacity:0.63399999;fill:#ac4311" />
</svg>
