<?xml version="1.0" encoding="UTF-8" standalone="no"?>
<!-- Created with Inkscape (http://www.inkscape.org/) -->

<svg
   xmlns:dc="http://purl.org/dc/elements/1.1/"
   xmlns:cc="http://creativecommons.org/ns#"
   xmlns:rdf="http://www.w3.org/1999/02/22-rdf-syntax-ns#"
   xmlns:svg="http://www.w3.org/2000/svg"
   xmlns="http://www.w3.org/2000/svg"
   xmlns:sodipodi="http://sodipodi.sourceforge.net/DTD/sodipodi-0.dtd"
   xmlns:inkscape="http://www.inkscape.org/namespaces/inkscape"
   width="143.99904mm"
   height="143.57286mm"
   viewBox="0 0 510.23281 508.72273"
   id="svg2"
   version="1.1"
   inkscape:version="0.91 r13725"
   sodipodi:docname="list_plot.svg">
  <defs
     id="defs4" />
  <sodipodi:namedview
     id="base"
     pagecolor="#ffffff"
     bordercolor="#666666"
     borderopacity="1.0"
     inkscape:pageopacity="0.0"
     inkscape:pageshadow="2"
     inkscape:zoom="0.35"
     inkscape:cx="417.25927"
     inkscape:cy="20.075648"
     inkscape:document-units="px"
     inkscape:current-layer="layer1"
     showgrid="false"
     fit-margin-top="0"
     fit-margin-left="0"
     fit-margin-right="0"
     fit-margin-bottom="0"
     inkscape:window-width="1920"
     inkscape:window-height="1054"
     inkscape:window-x="1366"
     inkscape:window-y="0"
     inkscape:window-maximized="1" />
  <metadata
     id="metadata7">
    <rdf:RDF>
      <cc:Work
         rdf:about="">
        <dc:format>image/svg+xml</dc:format>
        <dc:type
           rdf:resource="http://purl.org/dc/dcmitype/StillImage" />
        <dc:title></dc:title>
      </cc:Work>
    </rdf:RDF>
  </metadata>
  <g
     inkscape:label="Layer 1"
     inkscape:groupmode="layer"
     id="layer1"
     transform="translate(495.11641,-43.715128)">
    <g
       id="g4170"
       transform="translate(-494.45974,38.612309)">
      <g
         id="g6511" />
      <g
         id="g6513" />
      <g
         id="g6515" />
      <g
         id="g6517" />
      <g
         id="g6519" />
      <g
         id="g6521" />
      <g
         id="g6523" />
      <g
         id="g6525" />
      <g
         id="g6527" />
      <g
         id="g6529" />
      <g
         id="g6531" />
      <g
         id="g6533" />
      <g
         id="g6535" />
      <g
         id="g6537" />
      <g
         id="g6539" />
      <g
         id="g7203">
        <path
           inkscape:connector-curvature="0"
           id="path6483-5"
           d="m 340.74145,103.05581 c -1.19339,-2.6602 -1.06634,-5.67083 0.66301,-8.40153 3.45359,-5.460738 12.0157,-7.733171 19.11339,-5.072805 l 57.66539,21.597425 c 7.10093,2.6595 10.05254,9.239 6.59517,14.70143 -3.45358,5.46073 -12.01572,7.73317 -19.11339,5.0728 l -57.66539,-21.59742 c -3.551,-1.32996 -6.0648,-3.63971 -7.25818,-6.2999 z"
           style="fill:#008080" />
        <path
           inkscape:connector-curvature="0"
           id="path6479"
           d="m 165.75255,158.91182 c 3.30598,0 6.61195,-1.26218 9.13478,-3.78578 5.04641,-5.04254 5.04641,-13.22701 0,-18.27033 L 133.9062,95.874595 c -5.04642,-5.04641 -13.22314,-5.04641 -18.27033,0 -5.04641,5.042545 -5.04641,13.227005 0,18.270315 l 40.98113,40.98113 c 2.52359,2.5236 5.82957,3.78578 9.13555,3.78578 z"
           style="fill:#008080" />
        <path
           inkscape:connector-curvature="0"
           id="path6483"
           d="m 241.05595,166.77889 c -3.532,0 -7.06399,-1.34847 -9.75929,-4.04459 -5.39142,-5.3873 -5.39142,-14.1313 0,-19.51941 l 43.78286,-43.782861 c 5.39142,-5.391425 14.12716,-5.391425 19.51941,0 5.39142,5.387281 5.39142,14.131291 0,19.519401 l -43.78286,43.78287 c -2.69612,2.69612 -6.22812,4.04459 -9.76012,4.04459 z"
           style="fill:#008080" />
        <g
           id="g6485"
           transform="matrix(0.8922214,0,0,0.8922214,9.4098905,-3.3366145)"
           style="fill:#43c0c0;fill-opacity:1">
          <path
             style="fill:#43c0c0;fill-opacity:1"
             d="m 97.868717,141.75602 c -27.619,0 -50.087,-22.468 -50.087,-50.087007 0,-27.619 22.468,-50.087 50.087,-50.087 27.618993,0 50.086993,22.468 50.086993,50.087 0,27.619007 -22.468,50.087007 -50.086993,50.087007 z"
             id="path6487"
             inkscape:connector-curvature="0" />
          <path
             style="fill:#43c0c0;fill-opacity:1"
             d="m 218.80292,229.43136 c -27.619,0 -50.087,-22.46801 -50.087,-50.08701 0,-27.619 22.468,-50.087 50.087,-50.087 27.619,0 50.087,22.468 50.087,50.087 0,27.619 -22.467,50.08701 -50.087,50.08701 z"
             id="path6489"
             inkscape:connector-curvature="0"
             inkscape:transform-center-x="-32.542373"
             inkscape:transform-center-y="40.135593" />
          <path
             style="fill:#43c0c0;fill-opacity:1"
             d="m 342.95292,140.77934 c -27.619,0 -50.087,-22.468 -50.087,-50.087004 0,-27.619 22.468,-50.087 50.087,-50.087 27.619,0 50.087,22.468 50.087,50.087 0,27.619004 -22.468,50.087004 -50.087,50.087004 z"
             id="path6491"
             inkscape:connector-curvature="0" />
          <path
             style="fill:#43c0c0;fill-opacity:1"
             d="m 491.51059,187.51556 c -27.619,0 -50.087,-22.468 -50.087,-50.087 0,-27.619 22.468,-50.087004 50.087,-50.087004 27.619,0 50.087,22.468004 50.087,50.087004 0,27.619 -22.468,50.087 -50.087,50.087 z"
             id="path6491-6"
             inkscape:connector-curvature="0" />
        </g>
        <rect
           style="color:#000000;clip-rule:nonzero;display:inline;overflow:visible;visibility:visible;opacity:1;isolation:auto;mix-blend-mode:normal;color-interpolation:sRGB;color-interpolation-filters:linearRGB;solid-color:#000000;solid-opacity:1;fill:#d40000;fill-opacity:1;fill-rule:nonzero;stroke:#9e8181;stroke-width:0.49599999;stroke-linecap:butt;stroke-linejoin:bevel;stroke-miterlimit:4;stroke-dasharray:none;stroke-dashoffset:0;stroke-opacity:1;color-rendering:auto;image-rendering:optimizeQuality;shape-rendering:auto;text-rendering:auto;enable-background:accumulate"
           id="rect7149"
           width="23.298553"
           height="311.22287"
           x="74.301926"
           y="201.56851"
           ry="11.649277" />
        <rect
           style="color:#000000;clip-rule:nonzero;display:inline;overflow:visible;visibility:visible;opacity:1;isolation:auto;mix-blend-mode:normal;color-interpolation:sRGB;color-interpolation-filters:linearRGB;solid-color:#000000;solid-opacity:1;fill:#d40000;fill-opacity:1;fill-rule:nonzero;stroke:#9e8181;stroke-width:0.32668516;stroke-linecap:butt;stroke-linejoin:bevel;stroke-miterlimit:4;stroke-dasharray:none;stroke-dashoffset:0;stroke-opacity:1;color-rendering:auto;image-rendering:optimizeQuality;shape-rendering:auto;text-rendering:auto;enable-background:accumulate"
           id="rect7149-2"
           width="23.467869"
           height="134.03625"
           x="186.23218"
           y="379.62595"
           ry="11.733934" />
        <rect
           style="color:#000000;clip-rule:nonzero;display:inline;overflow:visible;visibility:visible;opacity:1;isolation:auto;mix-blend-mode:normal;color-interpolation:sRGB;color-interpolation-filters:linearRGB;solid-color:#000000;solid-opacity:1;fill:#d40000;fill-opacity:1;fill-rule:nonzero;stroke:#9e8181;stroke-width:0.47859305;stroke-linecap:butt;stroke-linejoin:bevel;stroke-miterlimit:4;stroke-dasharray:none;stroke-dashoffset:0;stroke-opacity:1;color-rendering:auto;image-rendering:optimizeQuality;shape-rendering:auto;text-rendering:auto;enable-background:accumulate"
           id="rect7149-7"
           width="23.31596"
           height="289.54535"
           x="314.30811"
           y="222.95613"
           ry="11.65798" />
        <rect
           style="color:#000000;clip-rule:nonzero;display:inline;overflow:visible;visibility:visible;opacity:1;isolation:auto;mix-blend-mode:normal;color-interpolation:sRGB;color-interpolation-filters:linearRGB;solid-color:#000000;solid-opacity:1;fill:#d40000;fill-opacity:1;fill-rule:nonzero;stroke:#9e8181;stroke-width:0.43584359;stroke-linecap:butt;stroke-linejoin:bevel;stroke-miterlimit:4;stroke-dasharray:none;stroke-dashoffset:0;stroke-opacity:1;color-rendering:auto;image-rendering:optimizeQuality;shape-rendering:auto;text-rendering:auto;enable-background:accumulate"
           id="rect7149-0"
           width="23.358709"
           height="239.6898"
           x="441.74438"
           y="271.74832"
           ry="11.679355" />
        <rect
           style="color:#000000;clip-rule:nonzero;display:inline;overflow:visible;visibility:visible;opacity:1;isolation:auto;mix-blend-mode:normal;color-interpolation:sRGB;color-interpolation-filters:linearRGB;solid-color:#000000;solid-opacity:1;fill:#000000;fill-opacity:1;fill-rule:nonzero;stroke:none;stroke-width:0.71673119;stroke-linecap:butt;stroke-linejoin:bevel;stroke-miterlimit:4;stroke-dasharray:none;stroke-dashoffset:0;stroke-opacity:1;color-rendering:auto;image-rendering:optimizeQuality;shape-rendering:auto;text-rendering:auto;enable-background:accumulate"
           id="rect7180"
           width="12.818797"
           height="508.32089"
           x="-0.65667033"
           y="5.102819"
           ry="6.4093986" />
        <rect
           style="color:#000000;clip-rule:nonzero;display:inline;overflow:visible;visibility:visible;opacity:1;isolation:auto;mix-blend-mode:normal;color-interpolation:sRGB;color-interpolation-filters:linearRGB;solid-color:#000000;solid-opacity:1;fill:#000000;fill-opacity:1;fill-rule:nonzero;stroke:none;stroke-width:0.72805244;stroke-linecap:butt;stroke-linejoin:bevel;stroke-miterlimit:4;stroke-dasharray:none;stroke-dashoffset:0;stroke-opacity:1;color-rendering:auto;image-rendering:optimizeQuality;shape-rendering:auto;text-rendering:auto;enable-background:accumulate"
           id="rect7180-9"
           width="12.807476"
           height="507.54254"
           x="-513.03448"
           y="-509.57614"
           ry="6.403738"
           transform="matrix(0,-1,-1,0,0,0)" />
      </g>
    </g>
  </g>
</svg>
